<?xml version="1.0" ?><svg viewBox="0 0 512 512" xmlns="http://www.w3.org/2000/svg"><defs><style>.cls-1{fill:#bebebe;}.cls-2{fill:#a2a2a2;}.cls-3{fill:#dfdfdf;}.cls-4{fill:#00b378;}.cls-5{fill:#096;}.cls-6{fill:#59cea7;}.cls-7{fill:#4cb08e;}.cls-8{fill:#0071af;}.cls-9{fill:#ec9090;}.cls-10{fill:#5ca4cc;}.cls-11{fill:#006095;}.cls-12{fill:#4e8cae;}</style></defs><title/><g data-name="/ FILLED_OUTLINE" id="_FILLED_OUTLINE"><path class="cls-1" d="M380.68629,28.68629l54.62742,54.62742A16,16,0,0,1,440,94.62742V376a16,16,0,0,1-16,16H200a16,16,0,0,1-16-16V40a16,16,0,0,1,16-16H369.37258A16,16,0,0,1,380.68629,28.68629Z"/><path class="cls-2" d="M196.81262,391.68066A16.07075,16.07075,0,0,0,200,392H424a16.00008,16.00008,0,0,0,16-16V136.00024C440,273.08838,332.24438,385.00464,196.81262,391.68066Z"/><rect class="cls-3" height="16" width="208" x="208" y="144"/><rect class="cls-3" height="16" width="208" x="208" y="184"/><rect class="cls-3" height="16" width="208" x="208" y="224"/><rect class="cls-3" height="16" width="208" x="208" y="264"/><rect class="cls-1" height="16" width="208" x="208" y="304"/><rect class="cls-1" height="16" width="208" x="208" y="344"/><path class="cls-3" d="M435.31372,83.31372,380.68628,28.68628A15.97373,15.97373,0,0,0,376,25.4563V72a16.00008,16.00008,0,0,0,16,16h46.54364A15.97424,15.97424,0,0,0,435.31372,83.31372Z"/><path class="cls-1" d="M416,280V264H405.73651q-4.7406,8.19434-10.0531,16Z"/><path class="cls-4" d="M324.68629,76.68629l54.62742,54.62742A16,16,0,0,1,384,142.62742V424a16,16,0,0,1-16,16H144a16,16,0,0,1-16-16V88a16,16,0,0,1,16-16H313.37258A16,16,0,0,1,324.68629,76.68629Z"/><path class="cls-5" d="M140.81262,439.68066A16.07075,16.07075,0,0,0,144,440H368a16.00008,16.00008,0,0,0,16-16V184.00024C384,321.08838,276.24438,433.00464,140.81262,439.68066Z"/><rect class="cls-6" height="16" width="208" x="152" y="192"/><rect class="cls-6" height="16" width="208" x="152" y="232"/><rect class="cls-6" height="16" width="208" x="152" y="272"/><rect class="cls-6" height="16" width="208" x="152" y="312"/><rect class="cls-7" height="16" width="208" x="152" y="352"/><rect class="cls-7" height="16" width="208" x="152" y="392"/><path class="cls-6" d="M379.31372,131.31372,324.68628,76.68628A15.97373,15.97373,0,0,0,320,73.4563V120a16.00008,16.00008,0,0,0,16,16h46.54364A15.97424,15.97424,0,0,0,379.31372,131.31372Z"/><path class="cls-8" d="M268.68629,124.68629l54.62742,54.62742A16,16,0,0,1,328,190.62742V472a16,16,0,0,1-16,16H88a16,16,0,0,1-16-16V136a16,16,0,0,1,16-16H257.37258A16,16,0,0,1,268.68629,124.68629Z"/><polygon class="cls-9" points="112 120 112 184 132 172 152 184 152 120 112 120"/><rect class="cls-10" height="16" width="192" x="104" y="216"/><rect class="cls-10" height="16" width="192" x="104" y="248"/><rect class="cls-10" height="16" width="192" x="104" y="280"/><rect class="cls-10" height="64" width="192" x="104" y="320"/><rect class="cls-10" height="16" width="88" x="104" y="408"/><rect class="cls-10" height="16" width="192" x="104" y="440"/><path class="cls-10" d="M323.31372,179.31372l-54.62744-54.62744A15.97373,15.97373,0,0,0,264,121.4563V168a16.00008,16.00008,0,0,0,16,16h46.54364A15.97424,15.97424,0,0,0,323.31372,179.31372Z"/><path class="cls-11" d="M84.81262,487.68066A16.07075,16.07075,0,0,0,88,488H312a16.00008,16.00008,0,0,0,16-16V232.00024C328,369.08838,220.24438,481.00464,84.81262,487.68066Z"/><path class="cls-12" d="M196.02527,456H296V440H221.26636A256.1575,256.1575,0,0,1,196.02527,456Z"/><path class="cls-12" d="M277.98834,384H296V356.02979A256.21616,256.21616,0,0,1,277.98834,384Z"/><path class="cls-7" d="M360,328V312H349.73651q-4.7406,8.19434-10.0531,16Z"/><path d="M440.97021,77.65625l-54.627-54.62695A23.84254,23.84254,0,0,0,369.37256,16H200a24.02718,24.02718,0,0,0-24,24V64H144a24.02718,24.02718,0,0,0-24,24v24H88a24.02718,24.02718,0,0,0-24,24V472a24.02718,24.02718,0,0,0,24,24H312a24.02718,24.02718,0,0,0,24-24V448h32a24.02718,24.02718,0,0,0,24-24V400h32a24.02718,24.02718,0,0,0,24-24V94.62695A23.84385,23.84385,0,0,0,440.97021,77.65625ZM384,43.314,420.686,80H392a8.00917,8.00917,0,0,1-8-8ZM120,128h24v41.87012l-12-7.19922-12,7.19922ZM320,472a8.00917,8.00917,0,0,1-8,8H88a8.00917,8.00917,0,0,1-8-8V136a8.00917,8.00917,0,0,1,8-8h16v70.12988l28-16.80078,28,16.80078V128h96v40a24.0275,24.0275,0,0,0,24,24h40ZM272,168V139.314L308.686,176H280A8.00917,8.00917,0,0,1,272,168ZM376,424a8.00917,8.00917,0,0,1-8,8H336V408h24V392H336V368h24V352H336V328h24V312H336V288h24V272H336V248h24V232H336V208h24V192H336V190.627a23.84385,23.84385,0,0,0-7.02979-16.9707l-54.627-54.62695A23.84254,23.84254,0,0,0,257.37256,112H136V88a8.00917,8.00917,0,0,1,8-8H312v40a24.0275,24.0275,0,0,0,24,24h40ZM328,120V91.314L364.686,128H336A8.00917,8.00917,0,0,1,328,120ZM432,376a8.00917,8.00917,0,0,1-8,8H392V360h24V344H392V320h24V304H392V280h24V264H392V240h24V224H392V200h24V184H392V160h24V144H392V142.627a23.84385,23.84385,0,0,0-7.02979-16.9707l-54.627-54.62695A23.84254,23.84254,0,0,0,313.37256,64H192V40a8.00917,8.00917,0,0,1,8-8H368V72a24.0275,24.0275,0,0,0,24,24h40Z"/><rect height="16" width="192" x="104" y="216"/><rect height="16" width="192" x="104" y="248"/><rect height="16" width="192" x="104" y="280"/><path d="M104,392H296V312H104Zm16-64H280v48H120Z"/><rect height="16" width="88" x="104" y="408"/><rect height="16" width="192" x="104" y="440"/></g></svg>