<?xml version="1.0" ?><svg viewBox="0 0 512 512" xmlns="http://www.w3.org/2000/svg"><defs><style>.cls-1{fill:#fda5a3;}.cls-2{fill:#00b378;}.cls-3{fill:#d78d8b;}.cls-4{fill:#096;}.cls-5{fill:#f0a5a5;}.cls-6{fill:#338dbf;}.cls-7{fill:#f9b7b7;}.cls-8{fill:#ea8383;}.cls-9{fill:#ec9090;}.cls-10{fill:#cbe2ef;}.cls-11{fill:#d27676;}.cls-12{fill:#dfdfdf;}.cls-13{fill:#f4f4f4;}.cls-14{fill:#0071af;}.cls-15{fill:#00659d;}.cls-16{fill:#006095;}.cls-17{fill:#bebebe;}.cls-18{fill:#ededed;}.cls-19{fill:#2c78a3;}.cls-20{fill:#cc8d8d;}.cls-21{fill:#d49c9c;}.cls-22{fill:#c77070;}</style></defs><title/><g data-name="/ FILLED_OUTLINE" id="_FILLED_OUTLINE"><path class="cls-1" d="M449.7915,428.7981,424.35693,322.8208a55.99974,55.99974,0,0,0-43.47119-41.84363L296,264H216l-84.8858,16.97717A56,56,0,0,0,87.643,322.8208L62.20844,428.7981A48,48,0,0,0,108.88306,488H403.11694A48,48,0,0,0,449.7915,428.7981Z"/><path class="cls-2" d="M87.643,322.8208,66.73169,409.95117,120,448H392l54.87427-31.35669L424.35693,322.8208a55.99974,55.99974,0,0,0-43.47119-41.84363L296,264H216l-84.8858,16.97717A56,56,0,0,0,87.643,322.8208Z"/><path class="cls-3" d="M284.55273,488H403.11694a48,48,0,0,0,46.67456-59.2019l-15.83886-65.99488A232.53373,232.53373,0,0,1,284.55273,488Z"/><path class="cls-4" d="M365.26965,448H392l54.87427-31.35669-7.59705-31.65454-5.32458-22.18555A232.85849,232.85849,0,0,1,365.26965,448Z"/><path class="cls-5" d="M296,264l-11.18824,6.71294a56,56,0,0,1-57.62352,0L216,264V224h80Z"/><circle class="cls-6" cx="408" cy="104" r="80"/><path class="cls-7" d="M176,96v79.50244a48.00014,48.00014,0,0,0,30.17322,44.5669l20.11554,8.04614a79.9998,79.9998,0,0,0,59.42242,0l20.1156-8.04614A48.00023,48.00023,0,0,0,336,175.50244V64Z"/><path class="cls-5" d="M347.34082,130.83521,336,128v48l12.91016-4.30334a21.29506,21.29506,0,0,0-1.56934-40.86145Z"/><path class="cls-5" d="M164.65918,130.83521a21.295,21.295,0,0,0-1.56928,40.86145L176,176V128Z"/><rect class="cls-8" height="16" width="16" x="216" y="120"/><rect class="cls-8" height="16" width="16" x="280" y="120"/><path class="cls-8" d="M264,184h-7.05566a22.472,22.472,0,0,1-17.97754-35.95557l18.6333-24.84423,12.7998,9.5996-18.6333,24.84473A6.47218,6.47218,0,0,0,256.94434,168H264Z"/><path class="cls-8" d="M256,211.75244a43.7948,43.7948,0,0,1-19.57764-4.59717l7.15528-14.31054a27.91375,27.91375,0,0,0,24.84472,0l7.15528,14.31054A43.7948,43.7948,0,0,1,256,211.75244Z"/><polygon class="cls-9" points="259.692 86.564 336 112 336 64 259.692 86.564"/><polygon class="cls-10" points="389.657 133.657 378.343 122.343 400 100.687 400 48 416 48 416 107.313 389.657 133.657"/><path class="cls-11" d="M221.31122,24A45.31124,45.31124,0,0,0,176,69.31128V104L329.78979,71.96045A48,48,0,0,0,368,24.96936V24Z"/><path class="cls-12" d="M376,312H136a16,16,0,0,0-16,16V488H392V328A16,16,0,0,0,376,312Z"/><circle class="cls-13" cx="256" cy="400" r="24"/><path class="cls-14" d="M64,376h48a16,16,0,0,1,16,16v16l-6.55921,65.59206A16,16,0,0,1,105.5202,488H70.4798a16,16,0,0,1-15.92059-14.40794L48,408V392A16,16,0,0,1,64,376Z"/><path class="cls-15" d="M112,376H64a16,16,0,0,0-16,16v16h80V392A16,16,0,0,0,112,376Z"/><path class="cls-16" d="M121.4408,473.592l4.9635-49.635a80.08232,80.08232,0,0,1-62.75183,62.50171A15.92863,15.92863,0,0,0,70.4798,488h35.0404A16.00005,16.00005,0,0,0,121.4408,473.592Z"/><path class="cls-17" d="M216.00018,488H392V328a15.99628,15.99628,0,0,0-.437-3.66A176.00431,176.00431,0,0,1,216.00018,488Z"/><rect class="cls-18" height="16" width="480" x="16" y="480"/><path class="cls-19" d="M375.14258,176.93652A79.992,79.992,0,0,0,480.93665,71.14258,160.35986,160.35986,0,0,1,375.14258,176.93652Z"/><path class="cls-20" d="M247.6618,278.062a55.982,55.982,0,0,0,37.15-7.34912L296,264V224h-.5155A64.04105,64.04105,0,0,1,247.6618,278.062Z"/><path class="cls-21" d="M231.69519,230.0321a79.98307,79.98307,0,0,0,54.016-1.91662l20.1156-8.04614A48.00023,48.00023,0,0,0,336,175.50244V80.00012A160.05669,160.05669,0,0,1,231.69519,230.0321Z"/><path class="cls-22" d="M275.57764,207.15527l-.69019-1.38037q-2.38311,1.8761-4.83813,3.66284A43.21343,43.21343,0,0,0,275.57764,207.15527Z"/><path d="M256,368a32,32,0,1,0,32,32A32.036,32.036,0,0,0,256,368Zm0,48a16,16,0,1,1,16-16A16.01833,16.01833,0,0,1,256,416Z"/><path d="M447.09375,474.6709a55.68069,55.68069,0,0,0,10.47705-47.73975L432.13623,320.9541a64.195,64.195,0,0,0-49.68164-47.82178L304,257.44141V229.41626l4.79785-1.91919a55.69464,55.69464,0,0,0,34.84473-45.61182l7.79785-2.59912a29.29538,29.29538,0,0,0-2.15967-56.2124L344,121.75366V75.53528a56.27962,56.27962,0,0,0,32-50.566V16H221.311A53.37117,53.37117,0,0,0,168,69.311v52.44262l-5.28125,1.32007a29.29538,29.29538,0,0,0-2.15869,56.2124l7.79742,2.59912a55.69447,55.69447,0,0,0,34.84467,45.61182L208,229.41626v28.02515l-78.45459,15.69091a64.19509,64.19509,0,0,0-49.68164,47.82129L68.57251,368H64a24.0275,24.0275,0,0,0-24,24v8H32v16h8.76007l5.83856,58.38818A24.17307,24.17307,0,0,0,47.86731,480H16v16H496V480H442.29822A56.81781,56.81781,0,0,0,447.09375,474.6709ZM168,164.90063l-2.37988-.79321a13.29541,13.29541,0,0,1,.979-25.51123L168,138.246Zm160-64-37.65283-12.551L328,80.50537Zm17.40039,37.69556a13.29541,13.29541,0,0,1,.98,25.51123L344,164.90088V138.24609ZM184,88V69.311A37.35346,37.35346,0,0,1,221.311,32H359.37158a40.202,40.202,0,0,1-30.69751,32H328v.16138L184,94.16162Zm0,87.50244V110.50513l75.21118-15.66895L328,117.76587v57.73657a39.80864,39.80864,0,0,1-25.14453,37.13916L282.74023,220.688a71.698,71.698,0,0,1-53.48046,0l-20.11524-8.04639A39.80864,39.80864,0,0,1,184,175.50244Zm104,60.29541v23.67261l-7.30469,4.38257a47.91269,47.91269,0,0,1-49.39111,0L224,259.4707V235.79785a87.4128,87.4128,0,0,0,64,0ZM113.48047,472.79639A7.97518,7.97518,0,0,1,105.52,480H70.48a7.97518,7.97518,0,0,1-7.96045-7.20361L56.8399,416h62.3202ZM120,400H56v-8a8.00917,8.00917,0,0,1,8-8h48a8.00917,8.00917,0,0,1,8,8Zm264,80H128.13269a24.17307,24.17307,0,0,0,1.26868-5.61182L135.24005,416H144V400h-8.01886L136,392a23.94322,23.94322,0,0,0-8-17.86914V328a8.00917,8.00917,0,0,1,8-8H376a8.00917,8.00917,0,0,1,8,8Zm-8-176H136a24.0275,24.0275,0,0,0-24,24v40H85.02734l10.395-43.3125a48.14523,48.14523,0,0,1,37.26075-35.86572l81.85345-16.37061,8.53571,5.12158a63.881,63.881,0,0,0,65.855,0l8.53613-5.12158,81.85351,16.37061A48.1451,48.1451,0,0,1,416.57764,324.688l21.11682,87.98694L400,434.2146V328A24.0275,24.0275,0,0,0,376,304Zm27.11719,176H400V452.64258l41.58374-23.76221.42847,1.78516A39.99922,39.99922,0,0,1,403.11719,480Z"/><rect height="16" width="16" x="216" y="120"/><rect height="16" width="16" x="280" y="120"/><path d="M256.94434,184H264V168h-7.05566a6.47218,6.47218,0,0,1-5.17774-10.35547l18.6333-24.84473-12.7998-9.5996-18.6333,24.84423A22.472,22.472,0,0,0,256.94434,184Z"/><path d="M243.57764,192.84473l-7.15528,14.31054a43.98553,43.98553,0,0,0,39.15528,0l-7.15528-14.31054A27.91375,27.91375,0,0,1,243.57764,192.84473Z"/><path d="M408,32a72,72,0,1,1-28.79688,138.0127l-6.40624,14.66113A88.00865,88.00865,0,1,0,408,16a88.65342,88.65342,0,0,0-17.59131,1.75977l3.18262,15.68066A72.56292,72.56292,0,0,1,408,32Z"/><polygon points="416 107.313 416 48 400 48 400 100.687 378.343 122.343 389.657 133.657 416 107.313"/></g></svg>