<?xml version="1.0" ?><svg id="Flat" viewBox="0 0 512 512" xmlns="http://www.w3.org/2000/svg"><title/><g><polygon fill="#f9d549" points="288 408 320 456 416 432 416 408 368 376 320 376 288 408"/><path d="M384,144l-8-32-32-8L328,56H264l-32,64L200,72,80,56,40,80l8,64L8,184v48.677L16,264l48,24,72-40,72,16,8,24-32,24-16,32,16,24,88-56,48,32h48l80-56,16-32s40,4.172,40,1.882V184.559Z" fill="#2a75e6"/><path d="M8,208v24.677L16,264l48,24,72-40,72,16,8,24-32,24-16,32,16,24,88-56,48,32h48l80-56,16-32s40,4.172,40,1.882V208Z" fill="#f9d549"/></g></svg>